<?xml version="1.0" encoding="UTF-8" standalone="no"?>
<!-- Created with Inkscape (http://www.inkscape.org/) -->

<svg
   width="69.052307mm"
   height="70.838249mm"
   viewBox="0 0 69.052307 70.838249"
   version="1.1"
   id="svg5"
   inkscape:version="1.1.1 (3bf5ae0d25, 2021-09-20)"
   sodipodi:docname="RD-logo.svg"
   xmlns:inkscape="http://www.inkscape.org/namespaces/inkscape"
   xmlns:sodipodi="http://sodipodi.sourceforge.net/DTD/sodipodi-0.dtd"
   xmlns:xlink="http://www.w3.org/1999/xlink"
   xmlns="http://www.w3.org/2000/svg"
   xmlns:svg="http://www.w3.org/2000/svg">
  <sodipodi:namedview
     id="namedview7"
     pagecolor="#ffffff"
     bordercolor="#999999"
     borderopacity="1"
     inkscape:pageshadow="0"
     inkscape:pageopacity="0"
     inkscape:pagecheckerboard="0"
     inkscape:document-units="mm"
     showgrid="false"
     inkscape:zoom="1.2970819"
     inkscape:cx="110.24747"
     inkscape:cy="164.21476"
     inkscape:window-width="1240"
     inkscape:window-height="929"
     inkscape:window-x="2295"
     inkscape:window-y="119"
     inkscape:window-maximized="0"
     inkscape:current-layer="layer1" />
  <defs
     id="defs2">
    <linearGradient
       inkscape:collect="always"
       xlink:href="#linearGradient3590"
       id="linearGradient3592"
       x1="10.715625"
       y1="16.404167"
       x2="21.927343"
       y2="16.404167"
       gradientUnits="userSpaceOnUse"
       gradientTransform="matrix(6,0,0,6,2.023031,48.03519)" />
    <linearGradient
       id="linearGradient3590"
       inkscape:swatch="solid">
      <stop
         style="stop-color:#000000;stop-opacity:1;"
         offset="0"
         id="stop3588" />
    </linearGradient>
  </defs>
  <g
     inkscape:label="Layer 1"
     inkscape:groupmode="layer"
     id="layer1"
     transform="translate(-65.425765,-111.04104)">
    <g
       aria-label="D"
       id="text4587"
       style="font-size:10.5833px;stroke-width:0.264583"
       transform="matrix(6,0,0,6,-21.074124,57.538228)">
      <g
         id="g3681">
        <text
           xml:space="preserve"
           style="font-style:normal;font-weight:normal;font-size:10.5833px;line-height:1.25;font-family:sans-serif;fill:#000000;fill-opacity:1;stroke:none;stroke-width:0.264583"
           x="11.831043"
           y="17.797562"
           id="text1089"
           transform="translate(4.0485273,-1.5079708)"><tspan
             sodipodi:role="line"
             id="tspan1087"
             style="font-style:normal;font-variant:normal;font-weight:normal;font-stretch:normal;font-family:Gabriola;-inkscape-font-specification:Gabriola;stroke-width:0.264583"
             x="11.831043"
             y="17.797562">R</tspan></text>
        <path
           d="m 20.60223,13.583605 q -0.0026,0.129191 -0.0078,0.384988 -0.0052,0.255798 -0.01292,0.596861 -0.0078,0.33848 -0.02067,0.741555 -0.01033,0.400491 -0.02325,0.821652 -0.01292,0.418578 -0.02842,0.834572 -0.0155,0.415994 -0.03101,0.785479 -0.0155,0.369485 -0.03359,0.671792 -0.0155,0.299722 -0.03101,0.48834 0.255797,0.06718 0.470254,0.09043 0.21704,0.02067 0.426329,0.02067 0.43408,0 0.775144,-0.10852 0.343647,-0.10852 0.602028,-0.302306 0.260965,-0.19637 0.441832,-0.465086 0.183451,-0.268717 0.297139,-0.58911 0.116272,-0.320393 0.167948,-0.682127 0.05426,-0.361733 0.05426,-0.741554 0,-0.568439 -0.126607,-1.041277 -0.124023,-0.472838 -0.408242,-0.813901 -0.281636,-0.341063 -0.736387,-0.529682 -0.454751,-0.191202 -1.11104,-0.191202 -0.16278,0 -0.328144,0.0078 -0.165364,0.0078 -0.335896,0.02067 z m -1.55804,-0.08527 q 0.273885,-0.05168 0.563272,-0.09818 0.289387,-0.04909 0.583942,-0.08527 0.294554,-0.03617 0.589109,-0.05684 0.297139,-0.02325 0.586526,-0.02325 0.403075,0 0.780311,0.05168 0.379821,0.04909 0.713133,0.170532 0.335896,0.118856 0.614947,0.320393 0.279052,0.198954 0.478006,0.498676 0.201537,0.297139 0.312641,0.705381 0.111104,0.408243 0.111104,0.943092 0,0.480589 -0.0956,0.922421 -0.0956,0.439249 -0.279052,0.819069 -0.18345,0.379821 -0.449583,0.689878 -0.263549,0.310058 -0.604613,0.532266 -0.338479,0.219624 -0.749305,0.341063 -0.408243,0.118856 -0.878497,0.118856 -0.242878,0 -0.493508,-0.03359 -0.25063,-0.03359 -0.521931,-0.103352 l -0.511595,0.06201 -0.04651,-0.0052 q 0.01809,-0.165364 0.03876,-0.436664 0.02067,-0.273884 0.03876,-0.635618 0.02067,-0.361734 0.03876,-0.803566 0.01809,-0.444416 0.03101,-0.953427 0.0155,-0.511595 0.02325,-1.07745 0.0078,-0.565856 0.0078,-1.175635 0,-0.124024 -0.01033,-0.217041 -0.01034,-0.09302 -0.05426,-0.155029 -0.04134,-0.06201 -0.126607,-0.09302 -0.08268,-0.03101 -0.227376,-0.03101 -0.170532,0 -0.436664,0.03876 z"
           style="-inkscape-font-specification:Gabriola"
           id="path14996" />
      </g>
    </g>
    <rect
       style="fill:none;fill-opacity:1;fill-rule:nonzero;stroke:url(#linearGradient3592);stroke-width:1.782;stroke-miterlimit:4;stroke-dasharray:none"
       id="rect3586"
       width="67.270309"
       height="69.056252"
       x="66.316765"
       y="111.93204" />
  </g>
</svg>
